<svg xmlns="http://www.w3.org/2000/svg" viewBox="0 0 64 64" fill="none">
  <rect width="64" height="64" rx="14" fill="#4D6BFE"/>
  <path fill="#fff" d="M32.2 12c-8.4 0-14.8 5.2-16.4 12.8-3.8.4-6.8 3.6-6.8 7.5 0 4.2 3.4 7.6 7.6 7.6h1.1c1.1 4.8 5.4 8.3 10.5 8.3 2.4 0 4.6-.8 6.4-2.1 1.8 1.3 4 2.1 6.4 2.1 5.1 0 9.4-3.5 10.5-8.3h.7c4.2 0 7.6-3.4 7.6-7.6 0-3.9-3-7.1-6.8-7.5C50.4 17.2 43.4 12 32.2 12zm-7.1 18.2a2.4 2.4 0 1 1 0 4.8 2.4 2.4 0 0 1 0-4.8zm14.2 0a2.4 2.4 0 1 1 0 4.8 2.4 2.4 0 0 1 0-4.8zM25.8 41.2c1.7 1.5 3.9 2.4 6.4 2.4s4.7-.9 6.4-2.4c.4-.3.4-.9 0-1.2-.3-.3-.8-.3-1.1 0-1.4 1.2-3.2 1.9-5.3 1.9s-3.9-.7-5.3-1.9c-.3-.3-.8-.3-1.1 0-.4.3-.4.9 0 1.2z"/>
</svg>
